<svg width="285" height="267" viewBox="0 0 285 267" fill="none" xmlns="http://www.w3.org/2000/svg">
<path d="M184.83 196.613C183.392 197.257 182.467 198.686 182.467 200.262V224.336L273.525 156.831L184.83 196.613Z" fill="white"/>
<path d="M271.09 152.598V131.347C271.09 128.426 268.061 126.49 265.41 127.717L182.467 166.101L271.09 152.598Z" fill="white"/>
<path d="M15.6894 99.0598L6.98184 94.5877C5.72131 93.9403 4.22778 93.9321 2.96021 94.5656C-0.274731 96.1823 -0.331724 100.778 2.86214 102.475L6.70323 104.515C7.73825 105.065 8.38522 106.141 8.38522 107.313M15.6894 99.0598V104.562M15.6894 99.0598V81.8516C15.6894 81.053 15.7826 80.2539 15.9834 79.4809C18.4137 70.1248 21.3763 66.08 27.1037 60.8199C27.7641 60.2135 28.5131 59.7085 29.3157 59.3089L123.028 12.6464C123.209 12.5562 123.409 12.5093 123.611 12.5093C124.991 12.5093 125.43 10.6495 124.196 10.032L105.043 0.447266L145.216 20.7623M35.654 183.283L46.2242 184.118C48.0685 184.264 49.917 183.895 51.5641 183.053L61.4619 177.992M35.654 183.283L25.4282 178.326M35.654 183.283L33.7033 179.185C33.064 177.843 32.7323 176.374 32.7323 174.887V90.6188C32.7323 89.7602 32.8399 88.9018 33.072 88.0752C35.9919 77.6768 39.8636 72.7609 48.875 66.1062C49.3092 65.7856 49.7739 65.5025 50.2557 65.2592L57.3229 61.6915M61.4619 177.992L62.4163 100.847C62.4292 99.8031 62.6018 98.7661 62.9478 97.7811C63.5054 96.1938 64.0512 94.7654 64.627 93.4535M61.4619 177.992V190.386C61.4619 192.508 62.0892 194.615 63.4639 196.232C65.2799 198.367 66.9999 199.671 69.9834 200.847L80.9396 206.137M199.266 66.4711V53.4139C199.266 52.6689 199.194 51.9224 198.993 51.205C197.968 47.5421 196.223 45.6197 191.408 43.6167M199.266 66.4711L213.431 59.4363C214.21 59.0491 215.037 58.7598 215.893 58.6041C219.288 57.9869 221.643 57.9134 225.045 58.5849C225.876 58.7489 226.672 59.0512 227.423 59.4427L237.978 64.9475M199.266 66.4711L182.467 74.7663M198.293 266.447L157.876 245.765M80.9396 206.137C85.2214 208.909 87.8576 209.793 91.894 209.318C92.8672 209.204 93.8007 208.874 94.6746 208.431L107.965 201.693M80.9396 206.137L78.7483 198.519M25.4282 178.326L24.9659 178.102C23.6664 177.472 22.5187 176.568 21.6018 175.452L17.9635 171.025C16.4932 169.236 15.6894 166.992 15.6894 164.676V104.562M25.4282 178.326C25.4282 179.984 24.6599 181.548 23.3478 182.562L23.237 182.648C21.855 183.715 21.0457 185.363 21.0457 187.11V189.408C21.0457 191.088 20.0579 192.612 18.5237 193.298L17.5038 193.754C15.1645 194.799 12.5242 193.088 12.5242 190.525C12.5242 189.197 11.7802 187.981 10.5977 187.376L10.4547 187.303C9.18451 186.654 8.38522 185.348 8.38522 183.921V107.313M8.38522 107.313L15.6894 104.562M145.216 20.7623C151.413 24.5086 153.042 26.5076 153.494 30.0734V42.5914M145.216 20.7623H140.78C139.214 20.7623 137.671 21.1298 136.273 21.8353L136.093 21.9262M153.494 42.5914L167.189 35.8423C168.117 35.385 169.109 35.0637 170.136 34.9391C171.849 34.7312 173.206 34.6907 174.933 34.9172C175.897 35.0436 176.819 35.3794 177.682 35.8268L188.737 41.5586C189.743 42.08 190.647 42.777 191.408 43.6167M153.494 42.5914L136.093 51.1668M191.408 43.6167L189.143 43.4267C187.324 43.2741 185.498 43.6222 183.863 44.4332L182.467 45.1257M78.7483 198.519V115.018C78.7483 114.537 78.782 114.057 78.8548 113.582C79.3879 110.104 80.0529 107.186 80.9926 104.599M78.7483 198.519L81.9134 196.983M107.965 184.341L106.991 184.813M277.908 85.7281C281.61 87.7798 283.206 89.3164 284.034 92.6267C284.187 93.2411 284.238 93.8767 284.238 94.51V180.981C284.238 182.765 283.761 184.517 282.856 186.054L275.006 199.389C274.039 201.032 272.622 202.364 270.923 203.229L183.684 247.614C183.684 247.614 175.775 251.875 170.293 250.788C167.305 249.976 166.045 248.697 164.968 245.92C164.593 244.951 164.45 243.91 164.45 242.872V156.269C164.45 155.101 164.651 153.937 165.069 152.846C168.407 144.144 171.51 139.798 177.16 133.91C177.928 133.109 178.835 132.454 179.827 131.958L269.873 86.9978C272.962 85.8014 274.74 85.6137 277.908 85.7281ZM277.908 85.7281L271.334 82.3308M154.955 207.618V236.733C154.955 238.049 155.214 239.351 155.719 240.566L157.876 245.765M157.876 245.765L118.192 225.458C116.752 224.721 115.512 223.645 114.579 222.323L111.256 217.618C110.065 215.931 109.426 213.916 109.426 211.85V128.464C109.426 127.907 109.47 127.352 109.569 126.804C109.928 124.818 110.345 123.014 110.849 121.351M114.052 157.677L138.886 170.011M138.886 170.011L149.403 175.235C152.804 176.924 154.955 180.394 154.955 184.191V188.688C154.955 194.662 148.667 198.547 143.325 195.873C140.604 194.512 138.886 191.73 138.886 188.688V170.011ZM117.947 150.271V134.419C117.947 133.286 118.137 132.159 118.525 131.094C121.104 124.017 123.133 120.168 126.927 115.501C127.581 114.696 128.378 114.017 129.26 113.47L139.86 106.89M230.918 62.2388C226.98 61.5181 224.569 61.5011 220.995 62.0059C219.986 62.1484 219.012 62.4721 218.102 62.9306L129.114 107.774C128.328 108.17 127.593 108.668 126.944 109.264C120.596 115.093 117.472 119.475 113.934 127.196C113.359 128.451 113.078 129.822 113.078 131.203V142.343C113.078 146.159 115.25 149.642 118.676 151.322L141.63 162.573C147.777 165.586 154.955 161.111 154.955 154.265C154.955 153.163 155.149 152.065 155.548 151.038C158.956 142.252 162.123 137.384 168.293 130.508C169.126 129.579 170.138 128.828 171.259 128.28L263.736 83.0545C264.417 82.7218 265.131 82.458 265.875 82.316C267.795 81.9492 269.174 81.9522 271.334 82.3308M175.406 91.0185L223.871 66.948C224.509 66.631 225.18 66.3803 225.873 66.2149C230.313 65.1551 233.131 64.9238 237.978 64.9475M237.978 64.9475L268.899 81.0726L271.334 82.3308M178.328 108.371L157.876 119.375C150.346 124.009 146.334 127.71 141.31 135.639C140.342 137.168 139.86 138.953 139.86 140.763V148.578M35.654 173.548V83.5592C35.654 82.3351 35.8787 81.1214 36.3171 79.9784L37.6017 76.6287M37.6017 76.6287L38.0887 172.913M37.6017 76.6287L40.2799 73.2428M40.2799 73.2428V171.855M40.2799 73.2428L42.7146 70.915M42.7146 70.915V170.586M42.7146 70.915L45.1493 68.7989M45.1493 68.7989V169.528M45.1493 68.7989L47.584 67.106M47.584 67.106V168.046M47.584 67.106L50.5057 65.4131M50.5057 65.4131L50.2622 166.988M50.5057 65.4131L52.6969 64.355M52.6969 64.355V165.93M52.6969 64.355C53.7135 63.8641 54.8944 64.6013 54.8998 65.7302L55.3751 164.872M57.3229 61.6915V164.237M57.3229 61.6915L59.7576 60.4624M59.7576 60.4624V162.968M59.7576 60.4624L62.4358 59.1104M62.4358 59.1104V98.8482M62.4358 59.1104L64.627 58.0042M64.627 58.0042V93.4535M64.627 58.0042L67.1375 56.7369M64.627 93.4535C65.3811 91.7354 66.1867 90.217 67.1375 88.8029M67.1375 56.7369V88.8029M67.1375 56.7369L69.4964 55.546M67.1375 88.8029C67.8337 87.7676 68.6077 86.7882 69.4964 85.8273M69.4964 55.546V85.8273M69.4964 55.546L71.9311 54.3169M69.4964 85.8273C70.3154 84.9418 71.2317 84.0721 72.2743 83.1887M71.9311 54.3169L72.2743 83.1887M71.9311 54.3169L74.1224 53.2107M72.2743 83.1887C72.6209 82.895 72.9815 82.5998 73.3571 82.302C73.8622 81.9016 74.4135 81.5639 74.9917 81.279L76.7787 80.3983M74.1224 53.2107V81.919M74.1224 53.2107L76.7787 51.8697M76.7787 51.8697V80.3983M76.7787 51.8697L79.2353 50.6296M76.7787 80.3983L79.2353 79.1877M79.2353 50.6296V79.1877M79.2353 50.6296L81.9134 49.2776M79.2353 79.1877L81.9134 77.8678M81.9134 49.2776V77.8678M81.9134 49.2776L84.3482 48.0485M81.9134 77.8678L84.3482 76.6679M84.3482 48.0485V76.6679M84.3482 48.0485L87.2698 46.5735M84.3482 76.6679L87.2698 75.2281M87.2698 46.5735V75.2281M87.2698 46.5735L89.461 45.4673M87.2698 75.2281L89.461 74.1482M89.461 45.4673V74.1482M89.461 45.4673L91.8693 44.2516M89.461 74.1482L91.8693 72.9613M91.8693 44.2516V72.9613M91.8693 44.2516L94.3305 43.0091M91.8693 72.9613L94.3305 71.7484M94.3305 43.0091V71.7484M94.3305 43.0091L96.5217 41.9029M94.3305 71.7484L96.7652 70.5485M96.5217 41.9029L96.7652 70.5485M96.5217 41.9029L99.1999 40.5509M96.7652 70.5485L104.313 66.8289M99.1999 40.5509V69.2221M99.1999 40.5509L101.93 39.1728M101.93 39.1728V67.7408M101.93 39.1728L104.069 38.0927M104.069 38.0927L104.313 66.8289M104.069 38.0927L106.541 36.845M104.313 66.8289L106.541 65.7309M106.541 36.845V65.7309M106.541 36.845L108.939 35.6345M106.541 65.7309L108.939 64.5491M108.939 35.6345V64.5491M108.939 35.6345L111.373 34.4054M108.939 64.5491L111.373 63.3493M111.373 34.4054V63.3493M111.373 34.4054L113.808 33.1763M111.373 63.3493L113.808 62.1494M113.808 33.1763V62.1494M113.808 33.1763L116.601 31.7663M113.808 62.1494L116.601 60.7729M116.601 31.7663V60.7729M116.601 31.7663L118.921 30.5952M116.601 60.7729L118.921 59.6296M118.921 30.5952V59.6296M118.921 30.5952L121.356 29.366M118.921 59.6296L121.356 58.4298M121.356 29.366V58.4298M121.356 29.366L123.79 28.1369M121.356 58.4298L123.79 57.2299M123.79 28.1369V57.2299M123.79 28.1369L126.225 26.9078M123.79 57.2299L126.225 56.03M126.225 26.9078V56.03M126.225 26.9078L128.903 25.5558M126.225 56.03L128.903 54.7101M128.903 25.5558V54.7101M128.903 25.5558L131.273 24.3598M128.903 54.7101L133.788 52.303M131.273 24.3598V53.5626M131.273 24.3598L133.788 23.0901M133.788 23.0901V52.303M133.788 23.0901L136.093 21.9262M133.788 52.303L136.093 51.1668M136.093 21.9262V51.1668M182.467 45.1257V74.7663M182.467 45.1257L179.789 46.4541M182.467 74.7663L179.789 76.0887M179.789 46.4541V76.0887M179.789 46.4541L177.111 47.7825M179.789 76.0887L177.111 77.4111M177.111 47.7825V77.4111M177.111 47.7825L174.432 49.111M177.111 77.4111L174.432 78.7336M174.432 49.111V78.7336M174.432 49.111L172.728 49.9563M174.432 78.7336L172.728 79.5751M172.728 49.9563V79.5751M172.728 49.9563L169.563 51.5262M172.728 79.5751L169.563 81.138M169.563 51.5262V81.138M169.563 51.5262L167.128 52.7339M169.563 81.138L167.128 82.3401M167.128 52.7339V82.3401M167.128 52.7339L164.45 54.0623M167.128 82.3401L164.45 83.6626M164.45 54.0623V83.6626M164.45 54.0623L161.772 55.3907M164.45 83.6626L161.772 84.985M161.772 55.3907V84.985M161.772 55.3907L159.094 56.7191M161.772 84.985L159.094 86.3074M159.094 56.7191V86.3074M159.094 56.7191L156.416 58.0475M159.094 86.3074L156.416 87.6298M156.416 58.0475V87.6298M156.416 58.0475L154.365 59.0646M156.416 87.6298L154.365 88.6423M154.365 59.0646V88.6423M154.365 59.0646L151.546 60.4628M154.365 88.6423L151.546 90.0342M151.546 60.4628V90.0342M151.546 60.4628L149.111 61.6705M151.546 90.0342L149.111 91.2364M149.111 61.6705V91.2364M149.111 61.6705L146.433 62.9989M149.111 91.2364L146.433 92.5588M146.433 62.9989V92.5588M146.433 62.9989L143.999 64.2065M146.433 92.5588L144.41 93.5579M143.999 64.2065L144.41 93.5579M143.999 64.2065L141.32 65.5349M144.41 93.5579L141.32 95.0835M141.32 65.5349V95.0835M141.32 65.5349L138.886 66.7426M141.32 95.0835L138.886 96.2857M138.886 66.7426V96.2857M138.886 66.7426L136.207 68.071M138.886 96.2857L136.207 97.6081M136.207 68.071V97.6081M136.207 68.071L133.529 69.3994M136.207 97.6081L133.529 98.9305M133.529 69.3994V98.9305M133.529 69.3994L131.273 70.5188M133.529 98.9305L131.273 100.045M131.273 70.5188V100.045M131.273 70.5188L128.66 71.8147M131.273 100.045L126.634 102.335M128.66 71.8147V100.964M128.66 71.8147L126.634 72.8196M126.634 72.8196V102.335M126.634 72.8196L124.034 74.1092M126.634 102.335C126.202 102.549 125.806 102.829 125.463 103.167C124.971 103.654 124.495 104.131 124.034 104.599M124.034 74.1092V104.599M124.034 74.1092L121.514 75.359M124.034 104.599C123.141 105.227 122.303 105.846 121.514 106.46M121.514 75.359V106.46M121.514 75.359L118.528 76.8403M121.514 106.46C120.427 107.309 119.434 108.149 118.528 108.997M118.528 76.8403V108.997M118.528 76.8403L115.968 78.11M118.528 108.997C117.586 109.878 116.736 110.766 115.968 111.68M115.968 78.11V111.68M115.968 78.11L113.408 79.3797M115.968 111.68C114.991 112.842 114.145 114.044 113.408 115.32M113.408 79.3797V115.32M113.408 79.3797L110.849 80.6493M113.408 115.32C112.355 117.145 111.524 119.121 110.849 121.351M110.849 80.6493V121.351M110.849 80.6493L108.92 81.606M80.9926 104.599L81.9134 196.983M80.9926 104.599C81.9432 101.981 83.1747 99.7013 84.8351 97.5188M81.9134 196.983L84.8351 195.565M84.8351 195.565V97.5188M84.8351 195.565L86.7441 194.639M84.8351 97.5188C85.4167 96.7543 86.051 96.0017 86.7441 95.2508M86.7441 95.2508V194.639M86.7441 95.2508C87.6302 94.291 88.6126 93.3339 89.7045 92.3579M86.7441 194.639L91.8693 192.152M89.7045 192.805V92.3579M89.7045 92.3579C90.3828 91.7518 91.1033 91.1383 91.8693 90.5125M91.8693 90.5125C92.0954 90.3278 92.3253 90.1421 92.5593 89.9551C93.0871 89.5335 93.6615 89.1743 94.2666 88.8741L94.3305 88.8425M91.8693 90.5125V192.152M91.8693 192.152L96.7652 189.776M94.5739 190.478L94.3305 88.8425M94.3305 88.8425L96.7652 87.6348M96.7652 87.6348V189.776M96.7652 87.6348L99.4434 86.3064M96.7652 189.776L99.4434 188.476M99.4434 188.476V86.3064M99.4434 188.476L101.889 187.289M99.4434 86.3064L101.889 85.0933M101.889 85.0933V187.289M101.889 85.0933L104.927 83.5865M101.889 187.289L104.927 185.815M104.927 185.815V83.5865M104.927 185.815L106.991 184.813M104.927 83.5865L106.991 82.5627M106.991 82.5627V184.813M106.991 82.5627L108.92 81.606M108.92 81.606L107.965 213.12M271.09 152.598L186.629 190.097C183.984 191.271 181.006 189.335 181.006 186.441V168.386C181.006 167.405 181.576 166.513 182.467 166.101M271.09 152.598V131.347C271.09 128.426 268.061 126.49 265.41 127.717L182.467 166.101M271.09 152.598L182.467 166.101M182.467 224.336V200.262C182.467 198.686 183.392 197.257 184.83 196.613L273.525 156.831M182.467 224.336L271.148 184.973C272.593 184.331 273.525 182.898 273.525 181.317V156.831M182.467 224.336L273.525 156.831" stroke="white"/>
</svg>
