<svg width="18" height="14" viewBox="0 0 18 14" fill="none" xmlns="http://www.w3.org/2000/svg">
<path d="M15.2378 1.13731C14.0905 0.610899 12.8602 0.223059 11.5739 0.000929368C11.5505 -0.00335063 11.5271 0.00735906 11.515 0.0287891C11.3568 0.310199 11.1815 0.677319 11.0588 0.965879C9.6753 0.758749 8.2989 0.758749 6.94374 0.965879C6.82099 0.670909 6.63936 0.310199 6.48043 0.0287891C6.46836 0.00807906 6.44496 -0.00264063 6.42154 0.000929368C5.13593 0.222349 3.90567 0.610189 2.7577 1.13731C2.74776 1.1416 2.73924 1.14875 2.73359 1.15802C0.400037 4.6443 -0.239214 8.04491 0.0743864 11.4033C0.0757964 11.4197 0.0850265 11.4354 0.0977965 11.4454C1.63741 12.5761 3.12878 13.2625 4.59246 13.7175C4.61588 13.7246 4.6407 13.716 4.65561 13.6967C5.00184 13.2239 5.31048 12.7254 5.57511 12.2011C5.59072 12.1704 5.57582 12.134 5.5439 12.1218C5.05435 11.9361 4.5882 11.7097 4.1398 11.4526C4.10433 11.4319 4.10149 11.3811 4.13412 11.3568C4.22848 11.2861 4.32286 11.2126 4.41297 11.1383C4.42927 11.1247 4.45198 11.1219 4.47115 11.1304C7.417 12.4754 10.6062 12.4754 13.5172 11.1304C13.5364 11.1211 13.5591 11.124 13.5761 11.1376C13.6662 11.2119 13.7606 11.2861 13.8557 11.3568C13.8883 11.3811 13.8862 11.4319 13.8507 11.4526C13.4023 11.7147 12.9361 11.9361 12.4459 12.1211C12.414 12.1332 12.3998 12.1704 12.4154 12.2011C12.6857 12.7246 12.9943 13.2232 13.3342 13.696C13.3484 13.716 13.3739 13.7246 13.3973 13.7175C14.8681 13.2625 16.3595 12.5761 17.8991 11.4454C17.9126 11.4354 17.9211 11.4204 17.9225 11.404C18.2978 7.52131 17.2939 4.14861 15.2612 1.15873C15.2562 1.14875 15.2477 1.1416 15.2378 1.13731ZM6.01502 9.35841C5.12812 9.35841 4.39735 8.54411 4.39735 7.54421C4.39735 6.54421 5.11395 5.73001 6.01502 5.73001C6.92315 5.73001 7.6469 6.55131 7.6327 7.54421C7.6327 8.54411 6.91606 9.35841 6.01502 9.35841ZM11.9961 9.35841C11.1092 9.35841 10.3784 8.54411 10.3784 7.54421C10.3784 6.54421 11.095 5.73001 11.9961 5.73001C12.9042 5.73001 13.6279 6.55131 13.6137 7.54421C13.6137 8.54411 12.9042 9.35841 11.9961 9.35841Z" fill="#9B96B0"/>
</svg>
