<svg width="248" height="109" viewBox="0 0 248 109" fill="none" xmlns="http://www.w3.org/2000/svg">
<path opacity="0.1" d="M176.788 108.282V72.3539M176.788 72.3539H141.431M176.788 72.3539H212.144M176.788 72.3539V36.4265M212.144 108.282V72.3539M212.144 72.3539H247.501M212.144 72.3539V42.4145M247.501 108.282V72.3539M247.501 72.3539V36.4265M35.3611 108.282V72.3539M35.3611 72.3539H0.00445677M35.3611 72.3539H70.7177M35.3611 72.3539V36.4265M70.7177 108.282V72.3539M70.7177 72.3539H106.074M70.7177 72.3539V47.0387M106.074 108.282V72.3539M106.074 72.3539H141.431M106.074 72.3539V36.4265M130.819 108.282C141.427 108.282 141.427 97.5035 141.427 97.5035C141.427 97.5709 141.427 97.6382 141.427 97.701C141.555 108.282 152.03 108.282 152.03 108.282M35.3611 36.4265H60.1063M35.3611 36.4265H0.00445677M141.431 72.3539V97.7009M141.431 72.3539V36.4265M106.074 36.4265H81.3203M106.074 36.4265H141.431M106.074 36.4265V0.498988M141.431 36.4265H176.788M141.431 36.4265V0.498988M176.788 36.4265V0.498988M176.788 36.4265L206.085 36.4266M247.501 36.4265V8.48289C247.501 4.0735 243.926 0.498988 239.517 0.498988H212.144M247.501 36.4265H218.06M106.074 0.498988H70.7176M106.074 0.498988H141.431M106.074 0.498988H106.07H70.7132H35.3566H0M106.074 0.498988H141.427H141.431M141.431 0.498988H176.788M141.431 0.498988H176.784H176.788M176.788 0.498988H212.144M176.788 0.498988H212.139H212.144M212.144 0.498988C212.144 12.4067 212.144 19.8744 212.144 30.4386M60.1063 36.4265C60.1063 36.4265 70.7132 36.4266 70.7132 47.2047C70.7132 47.2047 70.7132 47.1463 70.7132 47.0386V47.0161C70.7751 45.588 71.5398 36.4265 81.3159 36.4265C81.3159 36.4265 70.8723 36.4266 70.7132 25.8953C70.7132 25.8908 70.7132 25.8862 70.7132 25.8772C70.7132 25.8009 70.7132 25.7245 70.7132 25.6482C70.7132 25.6482 70.7133 36.4265 60.1063 36.4265ZM0.00440985 0.498988H35.3611H70.7176M70.7176 0.498988L70.7177 25.8773" stroke="url(#paint0_radial_0_10)" stroke-width="0.995984" stroke-miterlimit="10"/>
<defs>
<radialGradient id="paint0_radial_0_10" cx="0" cy="0" r="1" gradientUnits="userSpaceOnUse" gradientTransform="translate(220.215 -4.92131) rotate(171.04) scale(178.968 101.21)">
<stop stop-color="white"/>
<stop offset="1" stop-color="white" stop-opacity="0"/>
</radialGradient>
</defs>
</svg>
