<svg width="168" height="37" viewBox="0 0 168 37" fill="none" xmlns="http://www.w3.org/2000/svg">
<g clip-path="url(#clip0_724_3454)">
<path fill-rule="evenodd" clip-rule="evenodd" d="M35.6025 7.08959C35.2217 6.90369 35.0568 7.259 34.835 7.4404C34.7585 7.49887 34.694 7.57532 34.6296 7.64429C34.0719 8.23946 33.4212 8.62925 32.5712 8.58278C31.3284 8.51381 30.2669 8.9036 29.3285 9.85408C29.1291 8.68172 28.4664 7.9831 27.459 7.53335C26.9313 7.29947 26.3975 7.0671 26.0273 6.55888C25.7694 6.19757 25.6989 5.79429 25.57 5.39851C25.4875 5.15864 25.4051 4.91427 25.1307 4.8738C24.8309 4.82732 24.714 5.07768 24.597 5.28757C24.1278 6.1451 23.9464 7.08959 23.9644 8.04607C24.0049 10.1989 24.9134 11.914 26.7199 13.1328C26.9253 13.2722 26.9777 13.4131 26.9133 13.617C26.7903 14.0368 26.6434 14.4446 26.5145 14.8659C26.432 15.1342 26.3091 15.1912 26.0213 15.0757C25.0487 14.6578 24.1652 14.0572 23.4187 13.3067C22.1339 12.0654 20.9735 10.6951 19.5253 9.62171C19.1897 9.37377 18.8452 9.13824 18.4924 8.91559C17.0157 7.48087 18.6872 6.30252 19.074 6.16309C19.4788 6.01617 19.2135 5.51545 17.9062 5.52144C16.5989 5.52744 15.4025 5.9637 13.8779 6.54688C13.6513 6.6337 13.4182 6.70238 13.1807 6.75227C11.756 6.48382 10.2988 6.43226 8.8586 6.59936C6.03264 6.91418 3.77637 8.25146 2.11677 10.5317C0.122857 13.2722 -0.346387 16.3875 0.2278 19.6348C0.831971 23.0589 2.58002 25.8938 5.26506 28.1096C8.05054 30.4079 11.2573 31.5338 14.9168 31.3179C17.1386 31.1905 19.6137 30.8921 22.4037 28.5294C23.1083 28.8802 23.8459 29.0196 25.0723 29.1246C26.0168 29.213 26.9253 29.0796 27.6284 28.9327C28.7303 28.6988 28.6538 27.6779 28.2565 27.492C25.0258 25.9868 25.7349 26.6 25.0888 26.1037C26.7319 24.1608 29.2055 22.1429 30.174 15.6049C30.249 15.0847 30.1845 14.7579 30.174 14.3381C30.168 14.0833 30.2265 13.9828 30.5188 13.9543C31.3299 13.8702 32.1168 13.6283 32.835 13.2422C34.9279 12.0984 35.7734 10.2214 35.9728 7.96961C36.0028 7.6248 35.9668 7.27099 35.6025 7.08959ZM17.362 27.3555C14.2302 24.8939 12.7115 24.0828 12.0848 24.1173C11.4972 24.1533 11.6036 24.8234 11.7325 25.2612C11.8675 25.693 12.0429 25.9898 12.2887 26.3691C12.4596 26.6194 12.5766 26.9927 12.1193 27.2731C11.1104 27.8968 9.35783 27.0632 9.27537 27.0227C7.23498 25.8204 5.52741 24.2342 4.32657 22.0649C3.1662 19.9766 2.49157 17.7368 2.38063 15.3456C2.35064 14.7669 2.52005 14.563 3.09574 14.4581C3.85149 14.3134 4.62585 14.2937 5.38799 14.3996C8.58425 14.8674 11.3038 16.2961 13.5855 18.5583C14.8868 19.8476 15.8718 21.3873 16.8867 22.8925C17.9661 24.4906 19.1265 26.0138 20.6047 27.2611C21.1264 27.6989 21.5417 28.0317 21.9405 28.276C20.7381 28.411 18.7322 28.441 17.362 27.3555ZM18.8612 17.7008C18.8609 17.6263 18.8788 17.5529 18.9132 17.4869C18.9477 17.4209 18.9977 17.3642 19.059 17.3219C19.1202 17.2795 19.1909 17.2527 19.2648 17.2438C19.3387 17.2348 19.4137 17.244 19.4833 17.2705C19.572 17.3024 19.6486 17.3611 19.7023 17.4385C19.7561 17.5159 19.7843 17.6081 19.7831 17.7023C19.7834 17.7632 19.7714 17.8235 19.7481 17.8797C19.7248 17.9359 19.6905 17.987 19.6472 18.0298C19.604 18.0726 19.5526 18.1064 19.4962 18.1292C19.4397 18.152 19.3793 18.1634 19.3184 18.1626C19.258 18.1628 19.1981 18.1509 19.1424 18.1277C19.0866 18.1045 19.036 18.0704 18.9935 18.0274C18.9511 17.9844 18.9177 17.9334 18.8952 17.8773C18.8727 17.8212 18.8602 17.7612 18.8612 17.7008ZM23.5236 20.0935C23.2238 20.2149 22.9254 20.3199 22.6391 20.3334C22.2083 20.3484 21.7856 20.2138 21.4427 19.9526C21.032 19.6078 20.7381 19.4159 20.6152 18.8162C20.5728 18.5231 20.5809 18.225 20.6392 17.9347C20.7441 17.4444 20.6272 17.1296 20.2809 16.8448C20.0005 16.6109 19.6422 16.5464 19.2494 16.5464C19.115 16.5386 18.9843 16.4985 18.8686 16.4295C18.7037 16.3485 18.5688 16.1447 18.6977 15.8928C18.7397 15.8118 18.9376 15.6139 18.9856 15.578C19.5193 15.2751 20.1355 15.3741 20.7036 15.602C21.2314 15.8178 21.6301 16.2136 22.2043 16.7743C22.7905 17.4504 22.897 17.6378 23.2313 18.1446C23.4951 18.5419 23.735 18.9496 23.8984 19.4159C23.9989 19.7082 23.8699 19.9466 23.5236 20.0935Z" fill="white"/>
</g>
<g clip-path="url(#clip1_724_3454)">
<path fill-rule="evenodd" clip-rule="evenodd" d="M155.271 6.99902H152.231V25.3718H155.271V6.99902ZM51.7931 11.9369H53.5259V14.624H51.7931C50.7185 14.624 49.6343 14.891 48.9346 15.6353C48.2358 16.3785 47.9726 17.5195 47.9726 18.6595C47.9726 19.7995 48.2254 20.9395 48.9346 21.6828C49.6447 22.427 50.7185 22.6941 51.7922 22.6941C52.8669 22.6941 53.951 22.427 54.6498 21.6828C55.3495 20.9395 55.6127 19.7986 55.6127 18.6595V7.61353H58.6521V25.3718H55.6127V24.2412H55.055C54.9969 24.3064 54.9363 24.3692 54.8732 24.4296C54.1129 25.1237 52.9473 25.3718 51.8026 25.3718C50.0093 25.3718 48.2159 24.9248 47.0399 23.6864C45.8658 22.446 45.4492 20.5419 45.4492 18.6482C45.4492 16.7544 45.8753 14.8607 47.0399 13.6109C48.2159 12.3724 50.0093 11.935 51.7931 11.935V11.9369ZM98.0601 24.8945H96.3274V22.2083H98.0601C99.1339 22.2083 100.219 21.9404 100.917 21.1971C101.617 20.4538 101.88 19.3128 101.88 18.1728C101.88 17.0328 101.627 15.8928 100.917 15.1486C100.208 14.4053 99.1339 14.1373 98.0601 14.1373C96.9864 14.1373 95.9013 14.4053 95.2025 15.1486C94.5038 15.8928 94.2396 17.0328 94.2396 18.1728V29.2084H91.2002V11.4606H94.2396V12.5911H94.7982C94.8545 12.5276 94.9133 12.4663 94.9743 12.4074L94.9791 12.4027C95.7394 11.7087 96.905 11.4606 98.0497 11.4606C99.844 11.4606 101.636 11.9066 102.812 13.146C103.987 14.3864 104.403 16.2895 104.403 18.1832C104.403 20.077 103.977 21.9707 102.812 23.2196C101.648 24.4694 99.844 24.8945 98.0601 24.8945ZM73.9021 19.5013V18.4219C73.9021 16.4676 73.4666 14.5047 72.2414 13.2161C71.0247 11.9264 69.1508 11.471 67.296 11.471C65.442 11.471 63.5767 11.9369 62.3515 13.2161C61.1253 14.4943 60.6898 16.4676 60.6898 18.4209C60.6898 20.3743 61.1348 22.3371 62.3515 23.6267C63.5672 24.9144 65.442 25.3718 67.296 25.3718C69.1508 25.3718 71.0247 24.905 72.2414 23.6267C72.8691 22.9715 73.2848 22.1288 73.548 21.1971H70.5484C70.4592 21.3173 70.3644 21.4333 70.2643 21.5446C69.5353 22.3172 68.4104 22.5956 67.296 22.5956C66.1815 22.5956 65.0566 22.3077 64.3266 21.5446C63.5975 20.7805 63.3343 19.5912 63.3343 18.4209C63.3343 17.2506 63.5975 16.0708 64.3276 15.2982C65.0566 14.5246 66.1815 14.2472 67.296 14.2472C68.4104 14.2472 69.5353 14.5246 70.2653 15.2982C70.7718 15.8332 71.055 16.567 71.1771 17.35H65.8066V19.5013H73.9021ZM89.1635 18.4209V19.5013H81.0679V17.35H86.4375C86.3154 16.567 86.0323 15.8332 85.5257 15.2982C84.7966 14.5246 83.6708 14.2472 82.5564 14.2472C81.4419 14.2472 80.3171 14.5246 79.587 15.2982C78.858 16.0708 78.5938 17.2515 78.5938 18.4209C78.5938 19.5912 78.858 20.7805 79.588 21.5446C80.3171 22.3077 81.4419 22.5956 82.5564 22.5956C83.6708 22.5956 84.7957 22.3172 85.5257 21.5446C85.627 21.4347 85.7179 21.3164 85.8088 21.1971H88.8084C88.5452 22.1297 88.1296 22.9715 87.5018 23.6267C86.2851 24.905 84.4113 25.3718 82.5564 25.3718C80.7015 25.3718 78.8277 24.9154 77.6119 23.6267C76.3952 22.3371 75.9492 20.3743 75.9492 18.4209C75.9492 16.4676 76.3848 14.4943 77.611 13.2161C78.8381 11.9369 80.7015 11.471 82.5564 11.471C84.4113 11.471 86.2851 11.9264 87.5008 13.2161C88.728 14.5038 89.1635 16.4676 89.1635 18.4209ZM118.011 24.3406C116.796 25.1038 114.922 25.3718 113.067 25.3718C111.213 25.3718 109.358 25.0934 108.132 24.3397C106.906 23.5869 106.47 22.4176 106.47 21.2662H110.037C110.037 21.7131 110.25 22.1686 110.817 22.4564C111.385 22.7442 112.275 22.8531 113.148 22.8531C114.019 22.8531 114.901 22.7442 115.478 22.4554C116.056 22.1686 116.259 21.7131 116.259 21.2662C116.259 20.8212 116.056 20.3648 115.478 20.077C114.901 19.7891 113.938 19.6802 113.067 19.6802C111.384 19.6802 109.693 19.4028 108.588 18.6482C107.483 17.8954 107.088 16.726 107.088 15.5756C107.088 14.4252 107.483 13.2653 108.588 12.5021C109.693 11.738 111.384 11.4701 113.067 11.4701C114.748 11.4701 116.441 11.7484 117.545 12.5021C118.65 13.2549 119.045 14.4252 119.045 15.5756H115.955C115.955 15.1296 115.762 14.6837 115.246 14.3854C114.729 14.0985 113.928 13.9887 113.138 13.9887C112.347 13.9887 111.547 14.0881 111.03 14.3864C110.504 14.6733 110.32 15.1296 110.32 15.5756C110.32 16.0206 110.513 16.4676 111.03 16.7649C111.546 17.0527 112.276 17.1625 113.067 17.1625C114.922 17.1625 116.796 17.439 118.011 18.1927C119.237 18.9464 119.674 20.1167 119.674 21.2662C119.674 22.4166 119.228 23.5765 118.011 24.3406ZM134.933 18.4209V19.5013H126.838V17.35H132.208C132.086 16.567 131.802 15.8332 131.297 15.2982C130.567 14.5246 129.442 14.2472 128.327 14.2472C127.213 14.2472 126.087 14.5246 125.358 15.2982C124.629 16.0708 124.366 17.2515 124.366 18.4209C124.366 19.5912 124.629 20.7805 125.358 21.5446C126.087 22.3077 127.213 22.5956 128.326 22.5956C129.442 22.5956 130.567 22.3172 131.297 21.5446C131.397 21.4347 131.489 21.3164 131.581 21.1971H134.579C134.315 22.1297 133.9 22.9715 133.273 23.6267C132.057 24.905 130.181 25.3718 128.326 25.3718C126.473 25.3718 124.598 24.9154 123.382 23.6267C122.166 22.3371 121.721 20.3743 121.721 18.4209C121.721 16.4676 122.157 14.4943 123.382 13.2161C124.609 11.9369 126.473 11.471 128.326 11.471C130.182 11.471 132.057 11.9264 133.273 13.2161C134.498 14.5038 134.933 16.4676 134.933 18.4209ZM150.194 19.5013V18.4219C150.194 16.4676 149.758 14.5047 148.533 13.2161C147.316 11.9264 145.442 11.471 143.588 11.471C141.733 11.471 139.868 11.9369 138.643 13.2161C137.416 14.4943 136.981 16.4676 136.981 18.4209C136.981 20.3743 137.426 22.3371 138.643 23.6267C139.859 24.9144 141.733 25.3718 143.588 25.3718C145.442 25.3718 147.316 24.905 148.533 23.6267C149.161 22.9715 149.577 22.1288 149.84 21.1971H146.84L146.829 21.2122C146.741 21.3259 146.654 21.4395 146.556 21.5436C145.827 22.3172 144.703 22.5946 143.588 22.5946C142.473 22.5946 141.348 22.3077 140.618 21.5436C139.889 20.7805 139.625 19.5912 139.625 18.4209C139.625 17.2506 139.889 16.0708 140.618 15.2982C141.348 14.5246 142.473 14.2472 143.588 14.2472C144.703 14.2472 145.827 14.5246 146.556 15.2982C147.064 15.8332 147.348 16.567 147.469 17.35H142.098V19.5013H150.194ZM165.444 25.3718L160.46 18.0052L165.444 12.0855H161.685L156.7 18.0043L161.685 25.3708L165.444 25.3718Z" fill="white"/>
</g>
<defs>
<clipPath id="clip0_724_3454">
<rect width="35.9804" height="35.9804" fill="white" transform="translate(0 0.371094)"/>
</clipPath>
<clipPath id="clip1_724_3454">
<rect width="124.038" height="22.7245" fill="white" transform="translate(43.5547 6.99902)"/>
</clipPath>
</defs>
</svg>
