<svg width="143" height="30" viewBox="0 0 143 30" fill="none" xmlns="http://www.w3.org/2000/svg">
<g clip-path="url(#clip0_724_3459)">
<path fill-rule="evenodd" clip-rule="evenodd" d="M15.543 8.07244C15.4123 7.62791 15.3128 7.17476 15.2453 6.71633V5.38071C17.7384 5.40539 20.1313 6.36565 21.9499 8.07124L15.543 8.07244ZM14.7113 8.07244C14.8475 7.62282 14.9512 7.16234 15.0211 6.69222V5.38071C12.528 5.40539 10.1351 6.36565 8.31646 8.07124H14.7101L14.7113 8.07244ZM8.16216 8.29786H14.639C14.5448 8.58238 14.4374 8.86235 14.3171 9.13684C13.8196 10.3269 13.0995 11.4111 12.1956 12.3312L8.16216 8.29786ZM7.84393 8.07244H4.25655V8.29786H7.7704C5.97102 10.1677 4.95457 12.6547 4.92918 15.2496H0.667969V15.4738H4.92918C4.95457 18.0687 5.97102 20.5557 7.7704 22.4256H4.25655V22.6498H7.84393V26.2384H8.06934V22.7245C9.93919 24.5239 12.4262 25.5403 15.0211 25.5657V29.8269H15.2453V25.5657C17.8402 25.5403 20.3272 24.5239 22.1971 22.7245V26.2384H22.4213V22.6498H26.0098V22.4256H22.496C24.2954 20.5557 25.3118 18.0687 25.3372 15.4738H29.5984V15.2496H25.3372C25.3118 12.6547 24.2954 10.1677 22.496 8.29786H26.0098V8.07244H22.4213V4.48507H22.1971V7.99891C20.3272 6.19953 17.8402 5.18308 15.2453 5.1577V0.896484H15.0211V5.1577C12.4262 5.18308 9.93919 6.19953 8.06934 7.99891V4.48507H7.84393V8.07244ZM15.2453 25.3415C17.7386 25.3165 20.1315 24.3558 21.9499 22.6498H15.543C15.4129 23.0922 15.314 23.5454 15.2453 24.0071V25.3415ZM15.0211 24.0312C14.9514 23.5637 14.8474 23.102 14.7101 22.6498H8.31646C10.1349 24.3558 12.5278 25.3165 15.0211 25.3415V24.0312ZM5.1534 15.2496H6.48781C6.94625 15.1822 7.3994 15.0827 7.84393 14.9519V8.54497C6.13834 10.3636 5.17808 12.7565 5.1534 15.2496ZM6.4637 15.4738H5.15219C5.17687 17.967 6.13713 20.3599 7.84272 22.1785V15.7848C7.39087 15.6475 6.93076 15.5436 6.4637 15.4738ZM25.1118 15.2496C25.0871 12.7565 24.1269 10.3636 22.4213 8.54497V14.9519C22.8637 15.0821 23.3169 15.1809 23.7786 15.2496H25.1118ZM23.8027 15.4738C23.3326 15.5437 22.8721 15.6474 22.4213 15.7848V22.1785C24.1273 20.36 25.088 17.9671 25.113 15.4738H23.8027ZM22.1971 22.3328V15.8559C21.9125 15.9501 21.6326 16.0575 21.3581 16.1778C20.168 16.6753 19.0838 17.3954 18.1637 18.2994L22.1971 22.3328ZM22.1971 14.8832V8.31353L22.1826 8.29786H15.6118C15.7034 8.58114 15.807 8.862 15.9252 9.13684C16.4463 10.3449 17.1901 11.4441 18.1179 12.3771C19.0507 13.3052 20.1499 14.0495 21.3581 14.5709C21.6329 14.6879 21.9126 14.7915 22.1971 14.8832ZM8.06934 22.4111V15.8559C8.35262 15.95 8.63349 16.0573 8.90833 16.1778C10.1186 16.684 11.2191 17.4205 12.1485 18.3464C13.0744 19.2758 13.8109 20.3763 14.3171 21.5866C14.4377 21.8614 14.5462 22.1411 14.639 22.4256H8.08381L8.06934 22.4111ZM8.06934 14.8832V8.52207L12.0352 12.488C11.1265 13.3645 10.0673 14.0701 8.90833 14.5709C8.63356 14.6877 8.35361 14.7919 8.06934 14.8832ZM15.6118 22.4256H21.9728L18.007 18.4597C17.1304 19.3684 16.4248 20.4276 15.924 21.5866C15.8072 21.8613 15.703 22.1413 15.6118 22.4256ZM12.7826 13.0111C11.7821 14.0073 10.6048 14.8085 9.31094 15.3738C10.607 15.9243 11.7854 16.7181 12.7826 17.7123C13.7768 18.7095 14.5706 19.8879 15.1211 21.184C15.6864 19.8901 16.4876 18.7128 17.4838 17.7123C18.4809 16.7181 19.6594 15.9243 20.9555 15.3738C19.6616 14.8085 18.4843 14.0073 17.4838 13.0111C16.4876 12.0106 15.6864 10.8333 15.1211 9.53946C14.5706 10.8355 13.7768 12.014 12.7826 13.0111Z" fill="white"/>
</g>
<g clip-path="url(#clip1_724_3459)">
<path fill-rule="evenodd" clip-rule="evenodd" d="M49.1399 25.6933C47.0941 25.6933 45.2095 25.1973 43.4861 24.2044C41.7782 23.2261 40.3619 21.8102 39.3832 20.1025C38.3696 18.3585 37.8633 16.4336 37.8633 14.3278C37.8633 12.2201 38.3696 10.2962 39.3821 8.5542C40.3612 6.84642 41.7778 5.43051 43.4861 4.45231C45.2095 3.45835 47.0941 2.9624 49.1399 2.9624C50.7414 2.9624 52.2457 3.24654 53.6551 3.81378C55.0623 4.38102 56.2226 5.18073 57.1349 6.21395L55.2803 8.06755C54.5912 7.21721 53.7098 6.56318 52.6353 6.10753C51.5387 5.64716 50.3601 5.41445 49.1709 5.42354C47.6314 5.42354 46.1973 5.79343 44.8696 6.53322C43.5419 7.27301 42.4787 8.31553 41.6779 9.66388C40.8772 11.0091 40.4773 12.5641 40.4773 14.3278C40.4773 16.0905 40.8772 17.6445 41.6779 18.9928C42.4443 20.3071 43.5527 21.3891 44.8851 22.1235C46.1945 22.8556 47.6707 23.2374 49.1709 23.2322C50.6298 23.2322 51.851 23.0049 52.8336 22.5482C53.7872 22.113 54.6486 21.4993 55.3712 20.74C55.9187 20.1402 56.3515 19.445 56.6483 18.6891C56.9727 17.8883 57.1752 17.0018 57.2558 16.0296H49.2008V13.6294H59.657C59.7583 14.1966 59.8089 14.7225 59.8089 15.2092C59.8089 16.5462 59.5971 17.848 59.1714 19.1148C58.7556 20.3647 58.059 21.5028 57.1349 22.4417C55.1284 24.6084 52.4627 25.6933 49.1399 25.6933ZM68.489 25.6933C67.0095 25.6933 65.6828 25.3389 64.507 24.6291C63.3365 23.925 62.3843 22.9099 61.7566 21.6968C61.0974 20.4507 60.7678 19.0486 60.7678 17.4885C60.7678 15.9893 61.0777 14.612 61.6956 13.3556C62.2839 12.1334 63.1927 11.0936 64.3251 10.3468C65.4596 9.59776 66.777 9.2227 68.2762 9.2227C69.795 9.2227 71.1134 9.56159 72.2272 10.2404C73.3351 10.9117 74.2267 11.8872 74.7958 13.0508C75.3941 14.2473 75.6927 15.6142 75.6927 17.1537C75.6927 17.4575 75.6617 17.722 75.6017 17.9441H63.3518C63.4128 19.1189 63.6969 20.1118 64.2032 20.9219C64.7095 21.733 65.3532 22.3405 66.1333 22.7455C66.8873 23.1441 67.7271 23.3526 68.58 23.353C70.5658 23.353 72.096 22.4211 73.1695 20.5571L75.3589 21.6214C74.6894 22.8778 73.7833 23.8697 72.6385 24.5991C71.4926 25.3286 70.1102 25.6933 68.488 25.6933H68.489ZM72.9567 15.8167C72.9075 15.1382 72.7212 14.4767 72.4091 13.8722C72.0857 13.2233 71.5742 12.6768 70.8747 12.2314C70.1763 11.7851 69.2991 11.5629 68.2462 11.5629C67.0301 11.5629 66.001 11.9525 65.161 12.7326C64.32 13.5126 63.7672 14.5407 63.5037 15.8167H72.9567ZM77.32 9.70831H79.7822V11.9876H79.9041C80.3504 11.1982 81.0189 10.539 81.9106 10.0131C82.7633 9.4971 83.7408 9.2238 84.7375 9.2227C85.872 9.2227 86.8597 9.4965 87.7008 10.0431C88.5194 10.5633 89.1524 11.3294 89.5089 12.2314C90.042 11.3338 90.7888 10.5821 91.6828 10.0431C92.5848 9.49547 93.6335 9.2227 94.829 9.2227C96.6123 9.2227 97.9545 9.76411 98.8565 10.848C99.7574 11.9328 100.209 13.4062 100.209 15.2701V25.2066H97.6559V15.6648C97.6559 14.2266 97.3614 13.183 96.7745 12.5342C96.1856 11.8863 95.3146 11.5629 94.1605 11.5629C93.3897 11.5629 92.6912 11.7851 92.063 12.2314C91.4348 12.6768 90.943 13.275 90.5886 14.0241C90.2316 14.7844 90.0497 15.6153 90.0565 16.4553V25.2066H87.4735V15.6958C87.4735 14.2369 87.179 13.183 86.5911 12.5342C86.0032 11.8863 85.1425 11.5629 84.008 11.5629C83.2372 11.5629 82.5388 11.7903 81.9106 12.2459C81.2824 12.7016 80.7906 13.3101 80.4362 14.0695C80.08 14.8357 79.8983 15.6713 79.9041 16.5162V25.2066H77.321L77.32 9.70831ZM102.536 9.70831H104.998V11.9876H105.119C105.565 11.1982 106.235 10.539 107.125 10.0131C107.978 9.4971 108.956 9.2238 109.952 9.2227C111.087 9.2227 112.074 9.4965 112.916 10.0431C113.734 10.5633 114.367 11.3294 114.724 12.2314C115.257 11.3338 116.004 10.5821 116.898 10.0431C117.8 9.49547 118.848 9.2227 120.044 9.2227C121.827 9.2227 123.169 9.76411 124.071 10.848C124.973 11.9328 125.425 13.4062 125.425 15.2701V25.2066H122.871V15.6648C122.871 14.2266 122.577 13.183 121.989 12.5342C121.401 11.8863 120.53 11.5629 119.375 11.5629C118.605 11.5629 117.906 11.7851 117.278 12.2314C116.65 12.6768 116.158 13.275 115.803 14.0241C115.446 14.7844 115.264 15.6153 115.271 16.4553V25.2066H112.688V15.6958C112.688 14.2369 112.394 13.183 111.807 12.5342C111.218 11.8863 110.357 11.5629 109.223 11.5629C108.453 11.5629 107.754 11.7903 107.125 12.2459C106.497 12.7016 106.005 13.3101 105.651 14.0695C105.295 14.8357 105.113 15.6713 105.119 16.5162V25.2066H102.536V9.70831ZM132.553 25.6933C131.418 25.6933 130.405 25.4701 129.513 25.0248C128.622 24.5795 127.932 23.9657 127.447 23.1857C126.961 22.4066 126.717 21.5201 126.717 20.5272C126.717 18.8864 127.335 17.6052 128.571 16.6836C129.808 15.7609 131.368 15.3001 133.251 15.3001C134.184 15.3001 135.051 15.4014 135.851 15.6039C136.652 15.8064 137.264 16.0399 137.69 16.3034V15.3611C137.69 14.2059 137.285 13.2791 136.474 12.5807C135.664 11.8812 134.64 11.5319 133.404 11.5319C132.57 11.5231 131.747 11.716 131.003 12.094C130.295 12.4497 129.696 12.9906 129.27 13.6594L127.325 12.1994C127.933 11.2674 128.769 10.538 129.832 10.0121C130.897 9.48514 132.077 9.22166 133.374 9.22166C135.482 9.22166 137.138 9.7734 138.344 10.8779C139.55 11.9814 140.152 13.4858 140.152 15.39V25.2056H137.69V22.9873H137.569C137.124 23.7374 136.455 24.3749 135.564 24.9018C134.672 25.4288 133.668 25.6933 132.553 25.6933ZM132.797 23.414C133.668 23.414 134.478 23.1908 135.228 22.7455C135.968 22.3096 136.585 21.6928 137.022 20.9529C137.467 20.2028 137.69 19.3824 137.69 18.4907C137.205 18.1673 136.605 17.9038 135.896 17.7013C135.165 17.4957 134.407 17.3934 133.647 17.3976C132.229 17.3976 131.16 17.691 130.441 18.2789C129.721 18.8658 129.361 19.6252 129.361 20.5571C129.361 21.4085 129.686 22.0966 130.335 22.6236C130.982 23.1505 131.804 23.414 132.797 23.414Z" fill="white"/>
</g>
<defs>
<clipPath id="clip0_724_3459">
<rect width="28.9305" height="28.9305" fill="white" transform="translate(0.667969 0.896484)"/>
</clipPath>
<clipPath id="clip1_724_3459">
<rect width="106.422" height="24.7973" fill="white" transform="translate(35.7969 2.96265)"/>
</clipPath>
</defs>
</svg>
