<svg width="125" height="35" viewBox="0 0 125 35" fill="none" xmlns="http://www.w3.org/2000/svg">
<path fill-rule="evenodd" clip-rule="evenodd" d="M46.3555 27.4846V7.34652H49.4188V24.5789H60.0413V27.4846H46.3555ZM63.0897 27.4846V6.48438H65.9529V27.4846H63.0897ZM73.3397 27.772C71.8325 27.772 70.6606 27.3814 69.8251 26.6001C68.9906 25.8178 68.5734 24.7907 68.5734 23.5145C68.5734 22.2479 69.0428 21.1888 69.9826 20.3362C70.9235 19.4826 72.4243 19.0558 74.4849 19.0558H78.3795V19.0132C78.3795 16.596 77.2726 15.3879 75.0586 15.3879C74.1326 15.3879 73.3524 15.5561 72.717 15.8914C72.0903 16.2196 71.5599 16.7052 71.1779 17.3006L69.2173 15.704C69.8097 14.7714 70.643 14.016 71.6292 13.5178C72.6265 13.0101 73.7601 12.7557 75.0288 12.7557H75.3439C77.1001 12.7557 78.5126 13.2634 79.5812 14.2799C80.6509 15.2964 81.1852 16.8163 81.1852 18.8397V27.4846H78.4359V25.1398C77.9052 25.9628 77.1703 26.6342 76.3029 27.0887C75.4344 27.5442 74.4466 27.772 73.3397 27.772ZM73.9698 25.2122C75.0767 25.2122 75.9974 24.9599 76.7329 24.4565C77.4673 23.953 78.0166 23.2697 78.3795 22.4065V21.3133H74.5999C73.4738 21.3133 72.6691 21.4943 72.188 21.853C71.7058 22.2127 71.4642 22.6992 71.4642 23.3133C71.4642 24.5789 72.2998 25.2122 73.9698 25.2122ZM84.4348 27.4846V13.1006H87.298V15.4592C87.8131 14.6162 88.4528 13.9542 89.216 13.4752C89.9791 12.9963 90.8626 12.7557 91.8642 12.7557H92.1792C93.2862 12.7557 94.2164 13.0293 94.9711 13.5753C95.7247 14.1224 96.2824 14.9079 96.6454 15.934C97.1988 14.9462 97.9056 14.1703 98.7635 13.604C99.6235 13.0388 100.596 12.7557 101.684 12.7557H101.999C103.603 12.7557 104.827 13.3166 105.671 14.4385C106.516 15.5604 106.938 17.1378 106.938 19.1707V27.4836H104.075V19.5156C104.075 16.7929 103.14 15.4305 101.269 15.4305H100.983C100.039 15.4305 99.2393 15.7307 98.5857 16.3299C97.9311 16.9291 97.4426 17.6849 97.1179 18.5949V27.4846H94.2548V19.5156C94.2548 16.7929 93.3192 15.4305 91.4491 15.4305H91.1627C90.2176 15.4305 89.4182 15.7307 88.7647 16.3299C88.1112 16.9291 87.6215 17.6849 87.298 18.5949V27.4846H84.4348ZM114.082 27.772C112.574 27.772 111.402 27.3814 110.567 26.6001C109.732 25.8178 109.315 24.7907 109.315 23.5145C109.315 22.2479 109.785 21.1888 110.725 20.3362C111.665 19.4826 113.166 19.0558 115.227 19.0558H119.121V19.0132C119.121 16.596 118.014 15.3879 115.8 15.3879C114.874 15.3879 114.094 15.5561 113.458 15.8914C112.832 16.2197 112.302 16.7054 111.92 17.3006L109.959 15.704C110.551 14.7714 111.384 14.016 112.371 13.5178C113.368 13.0101 114.501 12.7557 115.771 12.7557H116.086C117.843 12.7557 119.254 13.2634 120.323 14.2799C121.393 15.2975 121.927 16.8163 121.927 18.8397V27.4846H119.178V25.1398C118.648 25.9628 117.913 26.6342 117.045 27.0887C116.177 27.5442 115.189 27.772 114.082 27.772ZM114.711 25.2122C115.818 25.2122 116.74 24.9599 117.474 24.4565C118.209 23.953 118.758 23.2697 119.121 22.4065V21.3133H115.342C114.215 21.3133 113.411 21.4943 112.929 21.853C112.447 22.2127 112.206 22.6992 112.206 23.3133C112.206 24.5789 113.041 25.2122 114.711 25.2122Z" fill="white"/>
<g clip-path="url(#clip0_724_3476)">
<path fill-rule="evenodd" clip-rule="evenodd" d="M9.97434 6.20898C12.644 6.20898 14.8759 7.50827 17.5442 10.9154L17.9373 10.3954C18.2022 10.0525 18.4712 9.72067 18.7459 9.40561L19.1822 8.91768C20.6962 7.30752 22.3747 6.20898 24.3724 6.20898C26.147 6.20898 27.8144 6.98549 29.2391 8.32241L29.543 8.61935C31.9548 11.0799 33.6095 15.1855 33.7991 19.8082L33.8145 20.3547L33.8173 20.7032C33.8173 22.7957 33.4269 24.5495 32.6769 25.8613L32.4817 26.182L32.3312 26.3952C31.9116 26.9808 31.4055 27.452 30.8172 27.8019L30.4478 27.9998L30.3265 28.0556C30.1888 28.1169 30.0483 28.1718 29.9055 28.2201C29.3075 28.4178 28.6811 28.5158 28.0514 28.5101C27.3209 28.5101 26.6629 28.4167 26.0467 28.2103C25.1907 27.9259 24.4254 27.4297 23.6405 26.6545L23.324 26.3269C22.2743 25.1949 21.1855 23.5722 19.8486 21.3278L17.8551 17.968L17.0967 16.7203L14.6347 21.0838L14.1566 21.9091C10.9502 27.3376 9.0403 28.5142 6.43198 28.5142C4.74515 28.5142 3.35804 27.9287 2.33897 26.8664L2.10476 26.6099C1.43003 25.8111 0.937918 24.7823 0.650737 23.5583L0.557334 23.1122C0.44956 22.5192 0.386185 21.919 0.367739 21.3166L0.359375 20.8022C0.362163 19.7636 0.44302 18.725 0.601945 17.6934L0.741353 16.8946C1.15679 14.7617 1.89565 12.7709 2.88266 11.0994L3.17402 10.6254C4.81485 8.07426 7.06211 6.3693 9.60769 6.22014L9.97434 6.20898ZM9.92833 9.8545L9.64812 9.86844C8.49104 9.98415 7.40923 10.8067 6.50866 12.0669L6.31627 12.3443L6.30233 12.3694C5.3683 13.7872 4.65035 15.6845 4.27255 17.7297L4.26698 17.7603C4.07664 18.797 3.98006 19.8486 3.9784 20.9026L3.98119 21.1647C3.98677 21.4156 4.00489 21.6665 4.03695 21.9175L4.0969 22.3231C4.22516 23.0244 4.45518 23.589 4.77442 24.0072L4.93753 24.1982C5.35994 24.6485 5.9106 24.8841 6.5686 24.8841C8.10209 24.8841 9.07237 23.9417 11.7211 19.8082L14.7532 15.0684L15.3862 14.0911L15.1924 13.8151C13.0594 10.8094 11.6291 9.85589 9.92833 9.85589V9.8545ZM24.1424 9.08497L23.897 9.09473C23.0118 9.16164 22.192 9.5952 21.3598 10.3954L21.0865 10.6714C20.4745 11.3155 19.85 12.1547 19.1808 13.1905L19.5517 13.7454C19.8026 14.1274 20.0563 14.5261 20.3184 14.9415L20.7269 15.6037L22.673 18.8589L23.6419 20.4119C24.4546 21.7028 25.0778 22.6424 25.6047 23.3143L25.9017 23.6796C26.2948 24.1341 26.6392 24.4324 26.9849 24.6178L27.1271 24.6875C27.4435 24.8269 27.7642 24.8799 28.128 24.8799C28.3734 24.8827 28.616 24.8478 28.8502 24.7781C29.3214 24.6331 29.7006 24.332 29.9835 23.8901L30.116 23.6629L30.2233 23.437C30.4938 22.7971 30.6276 21.9593 30.6276 20.9486L30.6192 20.3226C30.5077 16.3202 29.3116 12.8336 27.5523 10.8457L27.3069 10.5822C26.3729 9.63005 25.2939 9.08497 24.1424 9.08497Z" fill="white"/>
</g>
<defs>
<clipPath id="clip0_724_3476">
<rect width="33.4579" height="33.4579" fill="white" transform="translate(0.359375 0.632812)"/>
</clipPath>
</defs>
</svg>
