<svg width="77" height="31" viewBox="0 0 77 31" fill="none" xmlns="http://www.w3.org/2000/svg">
<path d="M52.843 16.7646C51.4279 18.0539 49.7647 18.4198 47.9837 18.4289C46.8107 18.435 45.6376 18.4301 44.394 18.4301C44.394 20.5046 44.394 22.5065 44.394 24.5671C43.2293 24.5671 42.1349 24.5671 41 24.5671C41 18.3311 41 12.1129 41 5.80753C41.7795 5.7562 42.5644 5.65908 43.349 5.66218C45.0501 5.6689 46.7511 5.71926 48.4518 5.76564C51.1285 5.83865 53.2483 6.90369 54.2338 9.48718C55.2341 12.1094 54.8927 14.5977 52.843 16.7646ZM51.2277 11.742C51.0745 10.1049 50.3817 9.04168 48.9083 8.7767C47.4446 8.51346 45.9261 8.55487 44.4097 8.46132C44.4097 10.9809 44.4097 13.2871 44.4097 15.6538C45.5438 15.6538 46.6247 15.7036 47.6994 15.6437C50.0881 15.5104 51.19 14.3192 51.2277 11.742Z" fill="#F0F2F3"/>
<path d="M60.5291 9.36698C60.5291 10.569 60.5291 11.6781 60.5291 12.9705C60.9396 12.4452 61.207 12.0126 61.5599 11.6674C63.0042 10.2544 64.7534 10.1067 66.5696 10.6665C68.3326 11.21 69.2692 12.5684 69.6234 14.3153C69.7758 15.0669 69.7914 15.8543 69.7972 16.626C69.8169 19.2561 69.8047 21.8865 69.8047 24.5715C68.6837 24.5715 67.6198 24.5715 66.4777 24.5715C66.4777 22.044 66.4841 19.5407 66.4724 17.0375C66.47 16.514 66.4596 15.9783 66.3516 15.4698C66.0357 13.9828 65.1478 13.2345 63.7271 13.182C62.3232 13.1301 61.1568 13.8999 60.7671 15.2383C60.5969 15.8232 60.5453 16.4588 60.5392 17.0723C60.5148 19.5503 60.5291 22.0286 60.5291 24.5666C59.4338 24.5666 58.3698 24.5666 57.2578 24.5666C57.2578 18.2663 57.2578 11.9827 57.2578 5.63965C58.325 5.63965 59.3953 5.63965 60.5291 5.63965C60.5291 6.8631 60.5291 8.06855 60.5291 9.36698Z" fill="#EEF0F1"/>
<path d="M75.3669 10.6648C75.6751 10.8261 76.0853 10.9859 76.0865 11.1489C76.1213 15.6059 76.1143 20.0632 76.1143 24.573C75.0073 24.573 73.9663 24.573 72.8594 24.573C72.8594 20.0002 72.8594 15.3987 72.8594 10.6648C73.6346 10.6648 74.4565 10.6648 75.3669 10.6648Z" fill="#EEF1F2"/>
<path d="M73.0587 7.97478C72.5077 7.21782 72.4342 6.4968 72.9509 5.77194C73.4339 5.09428 74.0997 4.87943 74.9025 5.06229C75.6876 5.2411 76.1272 5.76169 76.2573 6.52602C76.3906 7.30934 76.0637 7.92829 75.398 8.32885C74.5723 8.82572 73.8001 8.65671 73.0587 7.97478Z" fill="#ECEEEF"/>
<path d="M51.2322 11.8234C51.1905 14.3178 50.0886 15.5091 47.6999 15.6423C46.6252 15.7023 45.5443 15.6525 44.4102 15.6525C44.4102 13.2858 44.4102 10.9795 44.4102 8.45996C45.9266 8.55351 47.4451 8.5121 48.9088 8.77534C50.3822 9.04032 51.0749 10.1036 51.2322 11.8234Z" fill="#101719"/>
<path fill-rule="evenodd" clip-rule="evenodd" d="M14.9499 2.60547H2.84375V14.7142H14.9525V2.60547H14.9499Z" fill="white"/>
<path fill-rule="evenodd" clip-rule="evenodd" d="M28.3587 2.60547H16.25V14.7142H28.3587V2.60547Z" fill="white"/>
<path fill-rule="evenodd" clip-rule="evenodd" d="M14.9499 16.0085H2.84375V28.1173H14.9525V16.0085H14.9499Z" fill="white"/>
<path fill-rule="evenodd" clip-rule="evenodd" d="M28.3587 16.0085H16.25V28.1173H28.3587V16.0085Z" fill="white"/>
</svg>
