<svg width="135" height="37" viewBox="0 0 135 37" fill="none" xmlns="http://www.w3.org/2000/svg">
<path fill-rule="evenodd" clip-rule="evenodd" d="M57.9464 20.9614H62.3182L64.1536 23.1161C65.2683 22.1962 66.1577 21.0333 66.7537 19.7166C67.3728 18.3768 67.6889 16.9168 67.6792 15.4409C67.6792 13.0041 66.9301 11.0427 65.4296 9.55298C63.9412 8.0525 61.9677 7.30346 59.5105 7.30346C58.2765 7.30346 57.1218 7.52673 56.0474 7.97327C54.9647 8.41502 53.9863 9.07821 53.1749 9.92029C52.2527 10.8674 51.5216 11.9833 51.0214 13.2069C50.523 14.4219 50.2681 15.723 50.2712 17.0362C50.2712 19.4405 51.0046 21.4092 52.4727 22.9409C53.9408 24.4726 55.8085 25.2384 58.0737 25.2384C58.5418 25.2384 59.0256 25.2012 59.5261 25.1268C60.0363 25.0523 60.5681 24.9347 61.1215 24.775L57.9464 20.9614ZM65.923 30.4085L63.3698 27.4555C62.4659 27.8072 61.5932 28.0677 60.7529 28.2382C59.9354 28.4165 59.1013 28.5074 58.2645 28.5094C54.6994 28.5094 51.8713 27.4891 49.7754 25.4461C47.6807 23.403 46.6328 20.6433 46.6328 17.1634C46.6328 15.2704 46.9689 13.4998 47.6375 11.8505C48.2818 10.2294 49.2667 8.76549 50.5257 7.55794C51.7246 6.40753 53.1405 5.50735 54.691 4.90989C56.2659 4.3037 57.9512 4 59.7494 4C63.2485 4 66.0514 5.03233 68.1581 7.09579C70.2648 9.16045 71.3175 11.9093 71.3175 15.3448C71.3175 17.4623 70.8926 19.4249 70.0415 21.2327C69.2119 23.0148 67.9636 24.5699 66.4031 25.7654L70.2972 30.4085H65.923ZM72.8168 12.7928H76.2787L78.7359 20.5149L78.8007 20.7069C79.0984 21.654 79.2569 22.3551 79.2797 22.8136C79.3961 22.4511 79.5449 22.0694 79.7262 21.6637C79.9183 21.2495 80.1511 20.8078 80.4284 20.3396L85.5025 11.6753L87.9753 20.5941C88.0713 20.9242 88.1505 21.2651 88.2153 21.6156C88.2789 21.9674 88.3318 22.3719 88.375 22.828C88.5334 22.3815 88.6931 21.9782 88.8527 21.6156C89.0232 21.2555 89.1888 20.941 89.3473 20.6745L93.928 12.7916H97.8208L87.5623 28.86L85.0091 20.4032C84.9087 20.0882 84.8234 19.7685 84.7534 19.4453C84.6843 19.0589 84.6259 18.6706 84.5782 18.281C84.3741 18.7081 84.1665 19.1334 83.9552 19.557C83.7751 19.9195 83.6371 20.174 83.541 20.3228L78.4034 28.86L72.8168 12.7928ZM102.097 18.5367H109.899C109.868 17.5163 109.549 16.7121 108.942 16.1275C108.347 15.5309 107.543 15.2332 106.532 15.2332C105.383 15.2332 104.41 15.5309 103.613 16.1275C102.814 16.7229 102.309 17.5259 102.097 18.5367ZM109.707 23.2758L112.181 25.206C111.299 26.3656 110.341 27.2106 109.31 27.7436C108.277 28.2754 107.091 28.5419 105.751 28.5419C103.506 28.5419 101.693 27.866 100.309 26.5144C98.9264 25.1532 98.2349 23.3658 98.2349 21.1535C98.2349 18.5583 99.0272 16.43 100.612 14.771C102.208 13.1013 104.234 12.2658 106.693 12.2658C108.745 12.2658 110.378 12.9044 111.59 14.1805C112.815 15.4469 113.427 17.149 113.427 19.2869C113.427 19.4669 113.415 19.701 113.395 19.9891C113.383 20.2652 113.362 20.6013 113.33 20.9938H101.794C101.794 22.3659 102.14 23.4618 102.831 24.2805C103.523 25.0896 104.442 25.4929 105.592 25.4929C106.389 25.4929 107.144 25.302 107.857 24.9191C108.59 24.5173 109.222 23.9556 109.708 23.2758H109.707ZM126.893 27.9189L128.042 19.2233C128.063 19.0636 128.079 18.8992 128.09 18.7287C128.1 18.5475 128.105 18.287 128.105 17.9461C128.105 16.9569 127.865 16.2019 127.387 15.6809C126.909 15.148 126.211 14.8827 125.298 14.8827C123.872 14.8827 122.755 15.3448 121.946 16.2703C121.138 17.1862 120.611 18.5955 120.366 20.4993L119.41 27.9189H115.979L117.973 12.7928H121.276L121.021 14.6114C121.893 13.8143 122.792 13.2238 123.718 12.8408C124.665 12.4554 125.679 12.2601 126.702 12.2658C128.254 12.2658 129.463 12.6752 130.324 13.495C131.196 14.3029 131.632 15.4421 131.632 16.9101C131.632 17.2823 131.61 17.718 131.568 18.2186C131.525 18.7071 131.462 19.2821 131.376 19.9411L130.324 27.9201L126.893 27.9189Z" fill="white"/>
<path fill-rule="evenodd" clip-rule="evenodd" d="M19.4206 2.04956C20.022 3.10536 20.6203 4.16422 21.217 5.22461C21.2412 5.26702 21.2761 5.30226 21.3183 5.32672C21.3605 5.35119 21.4085 5.364 21.4573 5.36386H29.9527C30.2189 5.36386 30.4454 5.53217 30.6351 5.86421L32.8599 9.79669C33.1507 10.3124 33.2272 10.5281 32.8967 11.0774C32.4988 11.7354 32.1117 12.3995 31.7337 13.0666L31.1722 14.0735C31.01 14.3734 30.831 14.5019 31.111 14.8569L35.1689 21.9522C35.4321 22.4128 35.3388 22.7081 35.1031 23.1304C34.4345 24.3316 33.7535 25.5236 33.0604 26.711C32.8171 27.1272 32.5218 27.2848 32.0199 27.2771C30.831 27.2526 29.6451 27.2618 28.4592 27.3016C28.4338 27.3029 28.4091 27.3106 28.3875 27.324C28.3658 27.3373 28.3479 27.356 28.3353 27.3781C26.9671 29.8023 25.5874 32.2199 24.1962 34.631C23.9376 35.0793 23.6148 35.1864 23.0869 35.188C21.5613 35.1926 20.0235 35.1941 18.4704 35.191C18.3258 35.1906 18.1839 35.1521 18.059 35.0793C17.934 35.0065 17.8305 34.902 17.7589 34.7764L15.7162 31.2218C15.7043 31.1986 15.686 31.1792 15.6635 31.1659C15.6411 31.1526 15.6153 31.146 15.5892 31.1469H7.75786C7.32177 31.1928 6.91169 31.1453 6.52609 31.0061L4.07326 26.7676C4.00072 26.6421 3.96227 26.4998 3.96174 26.3548C3.9612 26.2099 3.99859 26.0673 4.0702 25.9413L5.91709 22.6974C5.9434 22.6515 5.95724 22.5995 5.95724 22.5467C5.95724 22.4938 5.9434 22.4418 5.91709 22.3959C4.95504 20.7303 3.99869 19.0614 3.04806 17.3893L1.83925 15.2547C1.59442 14.7804 1.57453 14.4958 1.98461 13.7781C2.69613 12.5341 3.40306 11.2916 4.10693 10.0507C4.3089 9.69265 4.57209 9.53963 5.00053 9.5381C6.32104 9.53254 7.64157 9.53203 8.96208 9.53657C8.99544 9.53631 9.02814 9.52726 9.05688 9.51034C9.08563 9.49342 9.1094 9.46921 9.12581 9.44017L13.4194 1.9501C13.4845 1.83615 13.5784 1.74136 13.6918 1.67528C13.8051 1.6092 13.9339 1.57416 14.0651 1.57368C14.8669 1.57215 15.6764 1.57368 16.4874 1.5645L18.0435 1.52931C18.5653 1.52472 19.1513 1.57827 19.4206 2.04956ZM14.1692 2.66621C14.1531 2.6662 14.1372 2.67043 14.1232 2.67849C14.1093 2.68655 14.0977 2.69814 14.0896 2.71211L9.70421 10.3858C9.68315 10.422 9.65302 10.452 9.61678 10.4729C9.58055 10.4939 9.53948 10.505 9.49764 10.5052H5.11223C5.02654 10.5052 5.00512 10.5434 5.0495 10.6184L13.9397 26.1586C13.9779 26.2228 13.9595 26.2534 13.8876 26.255L9.61087 26.2779C9.54835 26.2758 9.4865 26.2914 9.43238 26.3228C9.37827 26.3541 9.33407 26.4001 9.30484 26.4554L7.28504 29.9901C7.21772 30.1094 7.25291 30.1706 7.38909 30.1706L16.1354 30.1829C16.2058 30.1829 16.2578 30.2135 16.2946 30.2762L18.4414 34.0312C18.5117 34.1551 18.5821 34.1567 18.654 34.0312L26.314 20.6271L27.5121 18.5124C27.5194 18.4994 27.53 18.4885 27.5429 18.4809C27.5559 18.4733 27.5706 18.4693 27.5855 18.4693C27.6005 18.4693 27.6152 18.4733 27.6281 18.4809C27.641 18.4885 27.6517 18.4994 27.659 18.5124L29.8379 22.3837C29.8543 22.4127 29.8781 22.4367 29.9068 22.4534C29.9356 22.4701 29.9684 22.4788 30.0016 22.4786L34.2294 22.448C34.2403 22.4481 34.2509 22.4453 34.2603 22.4399C34.2697 22.4345 34.2776 22.4267 34.283 22.4174C34.2882 22.408 34.2909 22.3975 34.2909 22.3868C34.2909 22.376 34.2882 22.3655 34.283 22.3561L29.8455 14.5738C29.8296 14.5478 29.8211 14.5179 29.8211 14.4874C29.8211 14.4568 29.8296 14.4269 29.8455 14.4009L30.2939 13.6251L32.0076 10.6C32.0444 10.5373 32.026 10.5052 31.9541 10.5052H14.212C14.1217 10.5052 14.1003 10.4654 14.1462 10.3873L16.3405 6.55431C16.3569 6.52819 16.3656 6.49796 16.3656 6.46709C16.3656 6.43623 16.3569 6.40599 16.3405 6.37987L14.2503 2.71364C14.2423 2.69916 14.2305 2.68711 14.2163 2.67876C14.202 2.67041 14.1857 2.66608 14.1692 2.66621ZM23.7938 14.938C23.8642 14.938 23.8826 14.9686 23.8458 15.0298L22.5728 17.2715L18.5745 24.2872C18.567 24.3008 18.5559 24.3122 18.5424 24.32C18.5289 24.3278 18.5136 24.3318 18.498 24.3316C18.4825 24.3315 18.4672 24.3274 18.4538 24.3196C18.4404 24.3118 18.4292 24.3006 18.4215 24.2872L13.1379 15.0573C13.1073 15.0053 13.1226 14.9778 13.1807 14.9747L13.5112 14.9564L23.7969 14.938H23.7938Z" fill="white"/>
</svg>
