<svg width="24" height="24" viewBox="0 0 24 24" fill="none" xmlns="http://www.w3.org/2000/svg">
<g clip-path="url(#clip0_64_7586)">
<path d="M20.7176 7.96384L18.1543 7.39144L17.2086 4.94158L20.2504 1.4108C18.717 1.13707 17.0831 1.65208 15.9929 2.91777C14.7796 4.32656 14.5823 6.26335 15.3293 7.84257C15.3154 7.85783 15.2987 7.86897 15.2848 7.88471L12.4209 11.2094L14.9472 13.9534L18.0918 10.3031C18.1052 10.2873 18.114 10.2693 18.127 10.2531C19.7993 10.7579 21.6856 10.2758 22.8989 8.86741C23.9892 7.60173 24.2568 5.90995 23.759 4.43398L20.7176 7.96384Z" fill="black"/>
<path d="M5.15916 19.6391C4.53305 20.3658 4.615 21.4624 5.34165 22.0886L5.51721 22.2395C6.24381 22.8657 7.34047 22.7837 7.96663 22.057L11.905 17.4851L9.37863 14.7412L5.15916 19.6391Z" fill="black"/>
<path d="M14.6431 14.3064L12.1168 11.5623L8.77868 7.93707C8.76478 7.92181 8.7472 7.9116 8.73281 7.89678C8.76521 7.82176 8.7949 7.74533 8.82314 7.66891C8.85185 7.59065 8.87868 7.5119 8.90324 7.43271C9.36682 5.93267 9.04679 4.23441 7.90664 2.99609C6.77525 1.76697 5.12512 1.30615 3.60194 1.63035L6.75854 5.05884L5.89435 7.53883L3.35136 8.19554L0.194749 4.7671C-0.254008 6.25881 0.0692655 7.94085 1.20109 9.16997C2.3408 10.4074 4.00575 10.8668 5.53819 10.5292C5.6197 10.5112 5.70121 10.4912 5.78179 10.469C5.86049 10.4472 5.93881 10.4241 6.01659 10.3977C6.03 10.4134 6.0393 10.431 6.05315 10.4463L9.68258 14.3879L12.2089 17.1319L16.5617 21.8594C16.904 22.2313 17.3713 22.4197 17.8399 22.4197C18.2605 22.4197 18.6819 22.2678 19.0158 21.9607L19.1863 21.8038C19.892 21.154 19.9374 20.0555 19.2877 19.3497L14.6431 14.3064Z" fill="black"/>
</g>
<defs>
<clipPath id="clip0_64_7586">
<rect width="24" height="24" fill="white"/>
</clipPath>
</defs>
</svg>
