<svg width="1638" height="37" viewBox="0 0 1638 37" fill="none" xmlns="http://www.w3.org/2000/svg">
<g clip-path="url(#clip0_62_7295)">
<rect width="1716" height="37" fill="black" fill-opacity="0.01"/>
<path d="M1 28V36H9" stroke="black"/>
<path d="M1637 9V1H1629" stroke="black"/>
<path d="M1 36.5L23.5 0.5" stroke="black" stroke-opacity="0.12"/>
<path d="M11.5 37L34.5 0" stroke="black" stroke-opacity="0.12"/>
<path d="M23 38L46 0" stroke="black" stroke-opacity="0.12"/>
<path d="M32 38L55 0" stroke="black" stroke-opacity="0.12"/>
<path d="M41 38L64 0" stroke="black" stroke-opacity="0.12"/>
<path d="M50 38L73 0" stroke="black" stroke-opacity="0.12"/>
<path d="M59 38L82 0" stroke="black" stroke-opacity="0.12"/>
<path d="M68 38L91 0" stroke="black" stroke-opacity="0.12"/>
<path d="M77 38L100 0" stroke="black" stroke-opacity="0.12"/>
<path d="M86 38L109 0" stroke="black" stroke-opacity="0.12"/>
<path d="M95 38L118 0" stroke="black" stroke-opacity="0.12"/>
<path d="M104 38L127 0" stroke="black" stroke-opacity="0.12"/>
<path d="M113 38L136 0" stroke="black" stroke-opacity="0.12"/>
<path d="M122 38L145 0" stroke="black" stroke-opacity="0.12"/>
<path d="M131 38L154 0" stroke="black" stroke-opacity="0.12"/>
<path d="M140 38L163 0" stroke="black" stroke-opacity="0.12"/>
<path d="M149 38L172 0" stroke="black" stroke-opacity="0.12"/>
<path d="M158 38L181 0" stroke="black" stroke-opacity="0.12"/>
<path d="M167 38L190 0" stroke="black" stroke-opacity="0.12"/>
<path d="M176 38L199 0" stroke="black" stroke-opacity="0.12"/>
<path d="M185 38L208 0" stroke="black" stroke-opacity="0.12"/>
<path d="M194 38L217 0" stroke="black" stroke-opacity="0.12"/>
<path d="M203 38L226 0" stroke="black" stroke-opacity="0.12"/>
<path d="M212 38L235 0" stroke="black" stroke-opacity="0.12"/>
<path d="M221 38L244 0" stroke="black" stroke-opacity="0.12"/>
<path d="M230 38L253 0" stroke="black" stroke-opacity="0.12"/>
<path d="M239 38L262 0" stroke="black" stroke-opacity="0.12"/>
<path d="M248 38L271 0" stroke="black" stroke-opacity="0.12"/>
<path d="M257 38L280 0" stroke="black" stroke-opacity="0.12"/>
<path d="M266 38L289 0" stroke="black" stroke-opacity="0.12"/>
<path d="M275 38L298 0" stroke="black" stroke-opacity="0.12"/>
<path d="M284 38L307 0" stroke="black" stroke-opacity="0.12"/>
<path d="M293 38L316 0" stroke="black" stroke-opacity="0.12"/>
<path d="M302 38L325 0" stroke="black" stroke-opacity="0.12"/>
<path d="M311 38L334 0" stroke="black" stroke-opacity="0.12"/>
<path d="M320 38L343 0" stroke="black" stroke-opacity="0.12"/>
<path d="M329 38L352 0" stroke="black" stroke-opacity="0.12"/>
<path d="M338 38L361 0" stroke="black" stroke-opacity="0.12"/>
<path d="M347 38L370 0" stroke="black" stroke-opacity="0.12"/>
<path d="M356 38L379 0" stroke="black" stroke-opacity="0.12"/>
<path d="M365 38L388 0" stroke="black" stroke-opacity="0.12"/>
<path d="M374 38L397 0" stroke="black" stroke-opacity="0.12"/>
<path d="M383 38L406 0" stroke="black" stroke-opacity="0.12"/>
<path d="M392 38L415 0" stroke="black" stroke-opacity="0.12"/>
<path d="M401 38L424 0" stroke="black" stroke-opacity="0.12"/>
<path d="M410 38L433 0" stroke="black" stroke-opacity="0.12"/>
<path d="M419 38L442 0" stroke="black" stroke-opacity="0.12"/>
<path d="M428 38L451 0" stroke="black" stroke-opacity="0.12"/>
<path d="M437 38L460 0" stroke="black" stroke-opacity="0.12"/>
<path d="M446 38L469 0" stroke="black" stroke-opacity="0.12"/>
<path d="M455 38L478 0" stroke="black" stroke-opacity="0.12"/>
<path d="M464 38L487 0" stroke="black" stroke-opacity="0.12"/>
<path d="M473 38L496 0" stroke="black" stroke-opacity="0.12"/>
<path d="M482 38L505 0" stroke="black" stroke-opacity="0.12"/>
<path d="M491 38L514 0" stroke="black" stroke-opacity="0.12"/>
<path d="M500 38L523 0" stroke="black" stroke-opacity="0.12"/>
<path d="M509 38L532 0" stroke="black" stroke-opacity="0.12"/>
<path d="M518 38L541 0" stroke="black" stroke-opacity="0.12"/>
<path d="M527 38L550 0" stroke="black" stroke-opacity="0.12"/>
<path d="M536 38L559 0" stroke="black" stroke-opacity="0.12"/>
<path d="M545 38L568 0" stroke="black" stroke-opacity="0.12"/>
<path d="M554 38L577 0" stroke="black" stroke-opacity="0.12"/>
<path d="M563 38L586 0" stroke="black" stroke-opacity="0.12"/>
<path d="M572 38L595 0" stroke="black" stroke-opacity="0.12"/>
<path d="M581 38L604 0" stroke="black" stroke-opacity="0.12"/>
<path d="M590 38L613 0" stroke="black" stroke-opacity="0.12"/>
<path d="M599 38L622 0" stroke="black" stroke-opacity="0.12"/>
<path d="M608 38L631 0" stroke="black" stroke-opacity="0.12"/>
<path d="M617 38L640 0" stroke="black" stroke-opacity="0.12"/>
<path d="M626 38L649 0" stroke="black" stroke-opacity="0.12"/>
<path d="M635 38L658 0" stroke="black" stroke-opacity="0.12"/>
<path d="M644 38L667 0" stroke="black" stroke-opacity="0.12"/>
<path d="M653 38L676 0" stroke="black" stroke-opacity="0.12"/>
<path d="M662 38L685 0" stroke="black" stroke-opacity="0.12"/>
<path d="M671 38L694 0" stroke="black" stroke-opacity="0.12"/>
<path d="M680 38L703 0" stroke="black" stroke-opacity="0.12"/>
<path d="M689 38L712 0" stroke="black" stroke-opacity="0.12"/>
<path d="M698 38L721 0" stroke="black" stroke-opacity="0.12"/>
<path d="M707 38L730 0" stroke="black" stroke-opacity="0.12"/>
<path d="M716 38L739 0" stroke="black" stroke-opacity="0.12"/>
<path d="M725 38L748 0" stroke="black" stroke-opacity="0.12"/>
<path d="M734 38L757 0" stroke="black" stroke-opacity="0.12"/>
<path d="M743 38L766 0" stroke="black" stroke-opacity="0.12"/>
<path d="M752 38L775 0" stroke="black" stroke-opacity="0.12"/>
<path d="M761 38L784 0" stroke="black" stroke-opacity="0.12"/>
<path d="M770 38L793 0" stroke="black" stroke-opacity="0.12"/>
<path d="M779 38L802 0" stroke="black" stroke-opacity="0.12"/>
<path d="M788 38L811 0" stroke="black" stroke-opacity="0.12"/>
<path d="M797 38L820 0" stroke="black" stroke-opacity="0.12"/>
<path d="M806 38L829 0" stroke="black" stroke-opacity="0.12"/>
<path d="M815 38L838 0" stroke="black" stroke-opacity="0.12"/>
<path d="M824 38L847 0" stroke="black" stroke-opacity="0.12"/>
<path d="M833 38L856 0" stroke="black" stroke-opacity="0.12"/>
<path d="M842 38L865 0" stroke="black" stroke-opacity="0.12"/>
<path d="M851 38L874 0" stroke="black" stroke-opacity="0.12"/>
<path d="M860 38L883 0" stroke="black" stroke-opacity="0.12"/>
<path d="M869 38L892 0" stroke="black" stroke-opacity="0.12"/>
<path d="M878 38L901 0" stroke="black" stroke-opacity="0.12"/>
<path d="M887 38L910 0" stroke="black" stroke-opacity="0.12"/>
<path d="M896 38L919 0" stroke="black" stroke-opacity="0.12"/>
<path d="M905 38L928 0" stroke="black" stroke-opacity="0.12"/>
<path d="M914 38L937 0" stroke="black" stroke-opacity="0.12"/>
<path d="M923 38L946 0" stroke="black" stroke-opacity="0.12"/>
<path d="M932 38L955 0" stroke="black" stroke-opacity="0.12"/>
<path d="M941 38L964 0" stroke="black" stroke-opacity="0.12"/>
<path d="M950 38L973 0" stroke="black" stroke-opacity="0.12"/>
<path d="M959 38L982 0" stroke="black" stroke-opacity="0.12"/>
<path d="M968 38L991 0" stroke="black" stroke-opacity="0.12"/>
<path d="M977 38L1000 0" stroke="black" stroke-opacity="0.12"/>
<path d="M986 38L1009 0" stroke="black" stroke-opacity="0.12"/>
<path d="M995 38L1018 0" stroke="black" stroke-opacity="0.12"/>
<path d="M1004 38L1027 0" stroke="black" stroke-opacity="0.12"/>
<path d="M1013 38L1036 0" stroke="black" stroke-opacity="0.12"/>
<path d="M1022 38L1045 0" stroke="black" stroke-opacity="0.12"/>
<path d="M1031 38L1054 0" stroke="black" stroke-opacity="0.12"/>
<path d="M1040 38L1063 0" stroke="black" stroke-opacity="0.12"/>
<path d="M1049 38L1072 0" stroke="black" stroke-opacity="0.12"/>
<path d="M1058 38L1081 0" stroke="black" stroke-opacity="0.12"/>
<path d="M1067 38L1090 0" stroke="black" stroke-opacity="0.12"/>
<path d="M1076 38L1099 0" stroke="black" stroke-opacity="0.12"/>
<path d="M1085 38L1108 0" stroke="black" stroke-opacity="0.12"/>
<path d="M1094 38L1117 0" stroke="black" stroke-opacity="0.12"/>
<path d="M1103 38L1126 0" stroke="black" stroke-opacity="0.12"/>
<path d="M1112 38L1135 0" stroke="black" stroke-opacity="0.12"/>
<path d="M1121 38L1144 0" stroke="black" stroke-opacity="0.12"/>
<path d="M1130 38L1153 0" stroke="black" stroke-opacity="0.12"/>
<path d="M1139 38L1162 0" stroke="black" stroke-opacity="0.12"/>
<path d="M1148 38L1171 0" stroke="black" stroke-opacity="0.12"/>
<path d="M1157 38L1180 0" stroke="black" stroke-opacity="0.12"/>
<path d="M1166 38L1189 0" stroke="black" stroke-opacity="0.12"/>
<path d="M1175 38L1198 0" stroke="black" stroke-opacity="0.12"/>
<path d="M1184 38L1207 0" stroke="black" stroke-opacity="0.12"/>
<path d="M1193 38L1216 0" stroke="black" stroke-opacity="0.12"/>
<path d="M1202 38L1225 0" stroke="black" stroke-opacity="0.12"/>
<path d="M1211 38L1234 0" stroke="black" stroke-opacity="0.12"/>
<path d="M1220 38L1243 0" stroke="black" stroke-opacity="0.12"/>
<path d="M1229 38L1252 0" stroke="black" stroke-opacity="0.12"/>
<path d="M1238 38L1261 0" stroke="black" stroke-opacity="0.12"/>
<path d="M1247 38L1270 0" stroke="black" stroke-opacity="0.12"/>
<path d="M1256 38L1279 0" stroke="black" stroke-opacity="0.12"/>
<path d="M1265 38L1288 0" stroke="black" stroke-opacity="0.12"/>
<path d="M1274 38L1297 0" stroke="black" stroke-opacity="0.12"/>
<path d="M1283 38L1306 0" stroke="black" stroke-opacity="0.12"/>
<path d="M1292 38L1315 0" stroke="black" stroke-opacity="0.12"/>
<path d="M1301 38L1324 0" stroke="black" stroke-opacity="0.12"/>
<path d="M1310 38L1333 0" stroke="black" stroke-opacity="0.12"/>
<path d="M1319 38L1342 0" stroke="black" stroke-opacity="0.12"/>
<path d="M1328 38L1351 0" stroke="black" stroke-opacity="0.12"/>
<path d="M1337 38L1360 0" stroke="black" stroke-opacity="0.12"/>
<path d="M1346 38L1369 0" stroke="black" stroke-opacity="0.12"/>
<path d="M1355 38L1378 0" stroke="black" stroke-opacity="0.12"/>
<path d="M1364 38L1387 0" stroke="black" stroke-opacity="0.12"/>
<path d="M1373 38L1396 0" stroke="black" stroke-opacity="0.12"/>
<path d="M1382 38L1405 0" stroke="black" stroke-opacity="0.12"/>
<path d="M1391 38L1414 0" stroke="black" stroke-opacity="0.12"/>
<path d="M1400 38L1423 0" stroke="black" stroke-opacity="0.12"/>
<path d="M1409 38L1432 0" stroke="black" stroke-opacity="0.12"/>
<path d="M1418 38L1441 0" stroke="black" stroke-opacity="0.12"/>
<path d="M1427 38L1450 0" stroke="black" stroke-opacity="0.12"/>
<path d="M1436 38L1459 0" stroke="black" stroke-opacity="0.12"/>
<path d="M1445 38L1468 0" stroke="black" stroke-opacity="0.12"/>
<path d="M1454 38L1477 0" stroke="black" stroke-opacity="0.12"/>
<path d="M1463 38L1486 0" stroke="black" stroke-opacity="0.12"/>
<path d="M1472 38L1495 0" stroke="black" stroke-opacity="0.12"/>
<path d="M1481 38L1504 0" stroke="black" stroke-opacity="0.12"/>
<path d="M1490 38L1513 0" stroke="black" stroke-opacity="0.12"/>
<path d="M1499 38L1522 0" stroke="black" stroke-opacity="0.12"/>
<path d="M1508 38L1531 0" stroke="black" stroke-opacity="0.12"/>
<path d="M1517 38L1540 0" stroke="black" stroke-opacity="0.12"/>
<path d="M1526 38L1549 0" stroke="black" stroke-opacity="0.12"/>
<path d="M1535 38L1558 0" stroke="black" stroke-opacity="0.12"/>
<path d="M1544 38L1567 0" stroke="black" stroke-opacity="0.12"/>
<path d="M1553 38L1576 0" stroke="black" stroke-opacity="0.12"/>
<path d="M1562 38L1585 0" stroke="black" stroke-opacity="0.12"/>
<path d="M1571 38L1594 0" stroke="black" stroke-opacity="0.12"/>
<path d="M1580 38L1603 0" stroke="black" stroke-opacity="0.12"/>
<path d="M1589 38L1612 0" stroke="black" stroke-opacity="0.12"/>
<path d="M1598 38L1621 0" stroke="black" stroke-opacity="0.12"/>
<path d="M1607 38L1630 0" stroke="black" stroke-opacity="0.12"/>
<path d="M1616 38L1639 0" stroke="black" stroke-opacity="0.12"/>
<path d="M1625 38L1648 0" stroke="black" stroke-opacity="0.12"/>
<path d="M1634 38L1657 0" stroke="black" stroke-opacity="0.12"/>
</g>
<defs>
<clipPath id="clip0_62_7295">
<rect width="1638" height="37" fill="white"/>
</clipPath>
</defs>
</svg>
